<?xml version="1.0" encoding="UTF-8"?>
<svg width="170px" height="127px" viewBox="0 0 170 127" version="1.1" xmlns="http://www.w3.org/2000/svg" xmlns:xlink="http://www.w3.org/1999/xlink">
    <!-- Generator: Sketch 59.1 (86144) - https://sketch.com -->
    <title>Global/Logo/Default</title>
    <desc>Created with Sketch.</desc>
    <g id="Symbols" stroke="none" stroke-width="1" fill="none" fill-rule="evenodd">
        <g id="Blocks/MVS/DT" transform="translate(-21.000000, -14.000000)" fill="#FFFFFF">
            <g id="MVS">
                <g id="Logos/Default" transform="translate(21.000000, 13.000000)">
                    <g id="Logo" transform="translate(0.000000, 1.172727)">
                        <path d="M165.725723,78.9161226 L165.725078,78.9161226 C164.822806,78.9161226 164.006957,79.7006091 163.306874,81.248582 C162.776411,82.3861587 162.501021,83.6362117 162.486188,84.9667066 C162.524239,86.5680701 163.023101,87.3550483 164.010827,87.3714214 C164.866985,87.3635908 165.647363,86.5840873 166.324872,85.0539114 C166.871137,83.8031465 167.159748,82.5712463 167.18232,81.3927367 C167.158458,78.9634623 166.08044,78.9275126 165.725723,78.9161226 L165.725723,78.9161226 Z M102.375691,67.1445807 L101.725721,66.53974 C101.409136,66.2637178 101.045885,66.0293768 100.652021,65.8481407 C99.8150122,65.4584986 98.430327,66.4983676 97.679558,67.2319569 C98.3956072,67.5147716 99.1474961,67.6509302 99.9243982,67.6419765 C100.774473,67.6398152 101.592442,67.4798829 102.375691,67.1445807 L102.375691,67.1445807 Z M103.333242,54.4897037 C104.034247,54.4897037 104.761573,54.3780436 105.501559,54.1571443 C105.707796,54.0978344 105.91903,54.0273282 106.132597,53.9516777 L106.095281,53.7646698 C106.03964,53.487184 105.984,53.2396557 105.928026,53.0208746 C105.716792,52.1200292 105.159053,51.6800462 104.221492,51.6712707 L104.219493,51.6712707 C103.427864,51.6712707 102.763176,51.9714517 102.188445,52.5881541 C101.769974,53.0429646 101.519758,53.5567824 101.436464,54.1181087 C101.924569,54.3653343 102.511627,54.4894011 103.204969,54.4894011 C103.246616,54.4890985 103.290595,54.4897037 103.333242,54.4897037 L103.333242,54.4897037 Z M156.132123,78.9280807 C155.648085,78.9360529 155.281657,78.9483432 155.043865,78.9636232 C154.223536,79.0360367 153.664889,79.4093981 153.341829,80.1052987 C152.862569,81.1725677 152.511209,82.2212351 152.298777,83.2190801 C152.202116,83.6389457 152.153969,84.056486 152.154696,84.4647256 L152.181902,84.868979 C152.204689,85.052338 152.333324,85.2635995 152.563399,85.4924661 L154.266169,84.3198985 L155.633384,83.4140652 L156.289427,81.0715874 C156.536775,80.1976426 156.904306,79.5678442 157.382096,79.1984688 L157.790055,78.9177834 L156.971932,78.9161226 L156.132123,78.9280807 Z M166.788031,86.524322 C166.31542,86.8424888 165.801275,87.1418211 165.262427,87.4112203 C164.102022,88.0075307 163.167182,88.3021545 162.408497,88.310899 C161.518412,88.2974459 160.836705,88.0613433 160.375909,87.6086451 C159.879309,87.1206324 159.641571,86.381046 159.67093,85.4117473 C159.677375,83.8404204 160.070502,82.3467855 160.838137,80.9789374 C161.523066,79.7597466 162.729658,78.7235184 164.424257,77.8988409 C165.574637,77.3284277 166.477253,77.0465845 167.18259,77.0371673 C168.016105,77.0378399 168.700318,77.28975 169.219475,77.7861709 C169.736483,78.2805738 169.998926,78.9263245 170,79.7052614 C169.992481,80.8363341 169.706408,82.0982387 169.150015,83.4573423 C168.595055,84.8272083 167.800924,85.8594005 166.788031,86.524322 L166.788031,86.524322 Z M158.979526,78.8907155 L158.866754,79.3241702 C158.750576,79.7465196 158.632352,80.2344598 158.503908,80.8188776 C158.295399,81.6722524 158.182968,82.1636631 158.168659,82.2847805 L156.970415,88.2844326 C156.860709,88.8272053 156.756114,89.318269 156.654585,89.7576234 C156.499226,90.4451124 156.316269,90.9753917 156.110486,91.3324973 C155.54356,92.3548814 154.48841,93.2627417 152.976722,94.027274 C151.855476,94.59781 150.516182,94.8872426 148.996997,94.8872426 L148.988821,94.8872426 C146.745647,94.848721 145.599871,94.2483393 145.58011,93.1031027 C145.587947,92.2472985 146.235619,91.2800941 147.560263,90.139369 L150.386034,87.6989737 C150.057598,87.1947225 149.887248,86.5877471 149.879412,85.8908879 C149.878731,85.1811882 150.054191,84.1952435 150.416697,82.8744039 C150.797941,81.4747859 151.178844,80.537427 151.581893,80.0088829 C151.978128,79.4466758 152.521546,78.9240314 153.191363,78.4635075 C154.080932,77.8301569 154.674092,77.4629871 155.001506,77.3429107 C155.404895,77.2030531 156.10265,77.1277451 157.140424,77.11074 L160.607735,77.0371673 L159.672852,78.367377 C159.475246,78.6293933 159.243229,78.8039551 158.979526,78.8907155 L158.979526,78.8907155 Z M143.93085,89.1770586 L143.621995,88.5772162 C143.514327,88.3741539 143.444274,88.1599501 143.414251,87.9425117 L143.386644,87.5651392 C143.385954,87.2528186 143.424949,86.8930569 143.504665,86.4448822 L143.977437,84.1867575 C144.192427,83.2181683 144.368078,82.3958558 144.500247,81.7392277 L144.779079,80.2380043 L144.823595,79.8343955 L144.813588,79.72945 C144.807721,79.7050106 144.795988,79.6891969 144.795643,79.6891969 C144.749746,79.701776 144.675552,79.7236996 144.591695,79.7668278 C144.138593,79.9936107 143.69826,80.2405201 143.280012,80.5014462 C143.185112,80.5564347 142.900759,80.7343389 141.983167,81.3485574 L141.41653,81.7183824 L139.906075,88.246566 L137.391755,89.2503767 L138.41667,85.0521983 C138.644774,84.144348 138.815938,83.4345284 138.925331,82.9410691 C139.068889,82.2786906 139.19105,81.6824422 139.292851,81.1512455 L139.444691,80.2268628 L139.477129,79.8523656 L139.46091,79.7337628 C139.450557,79.7150739 139.438479,79.7050106 139.417774,79.6996196 C139.289746,79.7179491 138.985377,79.8124719 138.294163,80.1977512 L137.127072,80.8364091 L137.297201,79.512371 L138.062263,79.0070513 C138.404937,78.7838625 138.897379,78.4819646 139.568233,78.083028 L141.014846,77.2434642 C141.26055,77.1050943 141.462772,77.0378861 141.636007,77.0371673 L141.796128,77.0475899 C142.044592,77.1198298 142.205059,77.3038438 142.247505,77.5651293 L142.250956,77.715 C142.250956,77.9385483 142.179522,78.3241869 142.025958,78.9287016 L141.806826,79.9012443 L143.334191,78.916482 L144.883296,77.9435799 C145.444066,77.5759113 145.948931,77.2998903 146.379602,77.1259396 C146.521089,77.0691541 146.68052,77.0418395 146.867904,77.0414801 C147.137418,77.0486681 147.337915,77.1255802 147.469394,77.27006 C147.584999,77.3965696 147.640903,77.564051 147.635727,77.7678322 C147.635727,77.8562451 147.625719,77.9586748 147.605359,78.0646985 L147.514946,78.5078415 L147.041138,80.4356755 L146.519018,82.643484 C146.301612,83.5430679 146.134934,84.2787645 146.023816,84.8315252 C145.934437,85.2326182 145.894062,85.5862701 145.902344,85.8878086 C145.88578,86.2619465 145.958249,86.370486 145.98137,86.3956441 C145.990687,86.4060668 146.011047,86.434819 146.088692,86.4294279 C146.149773,86.4294279 146.402378,86.3916907 147.234733,85.822038 L149.337017,84.3452539 L149.064051,85.8507902 L148.177517,86.5250289 C146.996622,87.3976578 145.955488,88.088429 145.080342,88.5793726 L143.93085,89.1770586 Z M137.881955,85.6201508 L135.63756,87.0618114 C133.937272,88.1454103 133.379091,88.3101523 133.103434,88.3101523 C133.091075,88.3101523 133.079404,88.3098161 133.068419,88.3091436 C132.843911,88.324273 132.627298,88.2408934 132.471447,88.0865738 C132.241446,87.8596333 132.141894,87.4807267 132.165924,86.9290092 C132.16558,86.5225335 132.21467,86.1056354 132.311476,85.7001684 L133.31421,81.858654 C133.587122,80.7948914 133.733704,80.0821301 133.750182,79.7415513 C133.757734,79.6000076 133.732331,79.5415074 133.722376,79.5320936 C133.722032,79.5320936 133.711047,79.5270505 133.683928,79.5270505 C133.621793,79.5270505 133.540092,79.5495764 133.448435,79.5912662 L132.673985,79.9510089 L131.491713,80.5857699 L131.58337,79.2869978 L132.209177,78.8838843 L133.718256,77.9949499 C134.625557,77.4617238 135.26132,77.1588002 135.66262,77.0700413 C135.754963,77.050205 135.845591,77.0397825 135.932785,77.0391101 C136.108547,77.0239808 136.229039,77.1003 136.29392,77.1608175 C136.392786,77.2526023 136.442562,77.3827149 136.443249,77.5481293 L136.443249,77.6362158 C136.43398,77.8833288 136.33992,78.3247701 136.155577,78.9958416 C136.053621,79.3216273 135.846964,80.2152686 135.538008,81.6609636 C135.359156,82.4228113 135.159708,83.2374436 134.940006,84.1105762 C134.817453,84.5308364 134.752229,84.8620014 134.744677,85.1050799 L134.744677,85.1844251 L134.768707,85.5858576 C134.825692,85.8262464 134.908081,85.8265826 134.940349,85.8215395 C135.07526,85.8178412 135.4285,85.7364788 136.310398,85.2335115 L138.066298,84.3049045 L137.881955,85.6201508 Z M131.466515,85.6904371 L131.384974,85.7673583 C131.072105,86.061384 130.83168,86.2763319 130.668947,86.4060914 C129.64985,87.2752285 128.648252,88.008855 127.698799,88.5810908 L126.702451,89.1464972 L126.296142,88.8287482 C125.955627,88.5365197 125.797793,88.1019511 125.817391,87.5286369 C125.82579,87.0092395 125.996923,86.032269 126.340938,84.5470438 C126.407081,84.2735064 126.550216,83.6139255 126.778743,82.5280433 L127.127307,80.8379347 C127.182952,80.560084 127.211649,80.3224911 127.211999,80.1334232 L127.19905,79.8674342 C127.194501,79.8070475 127.187151,79.7703842 127.181202,79.7506147 L127.151105,79.7229375 L127.091961,79.7074814 C127.00167,79.7146703 126.887582,79.7538497 126.760195,79.8228631 C126.377684,80.0266682 126.014771,80.2304733 125.680205,80.4288867 L124.130913,81.4173594 L122.49378,88.3107884 L119.895644,89.2503767 L120.045079,88.7482326 C120.172816,88.3183368 120.266257,87.9851316 120.32645,87.7471793 C120.576325,86.8047155 120.81745,85.8694406 121.050527,84.9381195 L121.630767,82.50432 C121.809249,81.7279196 121.938736,81.1262093 122.016078,80.7185991 C122.046175,80.5453468 122.062274,80.3325556 122.062623,80.0899304 C122.074172,79.7635547 122.013978,79.6941819 122.013628,79.693463 C121.887291,79.7139514 121.540127,79.830052 120.581574,80.4709417 C120.089175,80.7901286 119.692315,81.0604309 119.398345,81.2764572 L119.021433,81.5521512 L117.356653,88.3190557 L114.893254,89.2421095 L116.429947,82.7016551 L116.842905,80.8397319 L116.952794,80.1319855 L116.952794,79.9795809 C116.952094,79.6992141 116.877902,79.6988547 116.833806,79.6988547 C116.728467,79.7067625 116.40965,79.7872781 115.654076,80.2351461 L114.585635,80.8641742 L114.779866,79.453354 L114.888355,79.388654 C115.317761,79.1338077 115.412601,79.0629972 115.433599,79.0450249 L115.470695,79.0177071 L117.116577,78.0198889 C118.518535,77.1780695 118.924843,77.0537017 119.122923,77.0393239 L119.15232,77.0371673 L119.403594,77.0835356 C119.534131,77.1352956 119.707713,77.2582257 119.791005,77.5493758 L119.799754,77.5935875 L119.816202,77.7352087 L119.814803,77.7578537 C119.804304,77.963456 119.753909,78.2538873 119.665718,78.6201614 L119.403244,79.7883564 L119.718562,79.5841919 C120.554627,79.0425088 121.11247,78.6880964 121.424638,78.5015447 L123.020126,77.5565647 C123.598967,77.2168896 123.994777,77.0537017 124.267049,77.0421995 C124.476678,77.0296189 124.640461,77.0817384 124.755249,77.2003551 C124.829792,77.2776357 124.915533,77.4203352 124.898385,77.6608037 L124.885786,77.8462771 C124.857439,78.1025611 124.804244,78.372504 124.722352,78.6830642 L124.506424,79.6327169 L124.874587,79.4105801 C125.702603,78.9026849 126.302441,78.5432402 126.656605,78.3426701 L128.122606,77.5177447 C128.684999,77.2100601 129.116855,77.0565773 129.445121,77.0465128 L129.466119,77.0457939 L129.721243,77.0846139 C130.008214,77.1733968 130.165348,77.4156624 130.152049,77.7492271 C130.152399,77.814646 130.14295,77.9030694 130.121952,78.0152161 L129.967268,78.8911826 C129.913723,79.1862867 129.65405,80.1830266 129.173199,81.9389136 C128.638453,83.8436107 128.363731,85.1685235 128.356382,85.8777078 L128.38193,86.1720929 C128.429525,86.4459897 128.528215,86.4427547 128.587359,86.4362847 C128.709496,86.4359253 129.072059,86.3381563 130.166048,85.4305587 L131.491713,84.3849343 L131.466515,85.6904371 Z M113.392019,69.5213461 C113.369661,69.5213461 113.347653,69.5210098 113.326343,69.5210098 C112.932984,69.5210098 112.681458,69.2836327 112.668882,68.8811676 L112.668882,68.7863512 C112.668532,68.5923475 112.694034,68.3008377 112.747134,67.8956827 C112.774033,67.6112336 112.813509,67.3382163 112.86591,67.0705787 L112.877439,66.9949273 L112.262248,67.4286617 L110.27624,68.7517197 C109.850741,69.0250732 109.468911,69.2365608 109.137036,69.3824838 C108.933021,69.4809987 108.716429,69.5273982 108.499138,69.5169751 L108.495645,69.5169751 C108.373026,69.5169751 108.25949,69.4994912 108.161325,69.463851 L107.922724,69.356258 C107.534955,69.1854541 107.279237,68.696242 107.142295,67.8617236 C107.088496,67.6317435 107.064391,67.3839433 107.073824,67.1405141 C107.064042,66.7437648 107.108408,66.2703555 107.206224,65.7481931 C107.370065,64.7203435 107.639059,63.6988822 108.00447,62.7191132 C108.257743,61.9928603 108.542806,61.406142 108.849877,60.9798047 C109.109438,60.6220579 109.598517,60.1916858 110.344361,59.6641437 C111.065752,59.1540855 111.626096,58.7993648 112.010722,58.6100683 C112.507835,58.3663028 113.166344,58.2476143 114.023629,58.2476143 L114.030965,58.2476143 C114.461005,58.2479505 114.952878,58.2738401 115.49331,58.3249468 C115.938371,58.375381 116.325442,58.4261514 116.648583,58.4769219 L117.847524,58.7361538 L117.076876,59.5683187 L116.821158,59.9005121 L116.059593,63.0264258 C115.593222,64.8857678 115.357067,66.1277948 115.357765,66.7195564 C115.346586,66.9071717 115.375232,66.9929099 115.400734,67.0238429 L115.431826,67.0302313 C115.463266,67.0258603 115.521607,67.0093851 115.614531,66.9555886 L116.552863,66.3745863 C116.89976,66.1550292 117.221154,65.9364809 117.505868,65.7266745 L118.342541,65.1224724 L118.320533,66.4616694 L117.506916,67.0450253 L115.8699,68.1448278 L114.28843,69.179402 C113.945027,69.4087096 113.650532,69.5213461 113.392019,69.5213461 L113.392019,69.5213461 Z M113.735343,83.4575338 C113.180415,84.8274407 112.385615,85.8593274 111.373856,86.5242687 C110.90163,86.8424449 110.387516,87.1414499 109.848341,87.4111934 C108.688005,88.0075217 107.75322,88.3021542 106.994221,88.310899 C106.104189,88.2974455 105.423238,88.0609995 104.962111,87.6089605 C104.465182,87.1205969 104.227816,86.3813248 104.256458,85.4116608 C104.263618,83.839278 104.656722,82.3455986 105.423954,80.979055 C106.108843,79.7598278 107.315363,78.7235687 109.010221,77.8985303 C110.161249,77.3277638 111.063454,77.0459121 111.768034,77.0371673 C112.601858,77.0375036 113.28603,77.2894212 113.805156,77.7858569 C114.322134,78.2806109 114.584561,78.9263809 114.585635,79.7050046 C114.577401,80.8381292 114.290987,82.1000714 113.735343,83.4575338 L113.735343,83.4575338 Z M101.350069,85.087447 C100.654356,85.6088469 99.7735802,86.1437762 98.7343265,86.6759303 C97.704395,87.2066967 96.8553834,87.5723358 96.2111151,87.7610528 C95.2816563,88.048638 94.149871,88.2141122 92.850286,88.2522719 C91.9847016,88.2914723 90.958568,88.310899 89.7953635,88.310899 C89.5336511,88.310899 89.2653786,88.3098583 88.9902008,88.3081238 L84.5303867,88.3050016 L86.4321175,86.6020393 L87.5062431,86.4917231 C88.5337578,86.3647555 89.2857493,85.9404892 89.801233,85.1953348 C90.2859879,84.5115827 90.6640553,83.619687 90.927494,82.5415026 L92.5202107,75.7626092 C92.5091622,75.2571669 92.7007854,74.1734321 93.4002964,71.7659033 C93.1299523,71.796431 92.9117435,71.8248773 92.7539565,71.8508953 C91.2157919,72.1308486 89.9873319,72.7497292 89.106901,73.6905387 C88.1857286,74.6715893 87.7192729,75.9433473 87.7203087,77.4704283 C87.7113317,77.8378019 87.7348099,78.1749947 87.7903979,78.4795783 C87.8114592,78.683906 87.8635945,78.9531052 87.9481849,79.3003583 L87.9985939,79.5053798 L85.1073279,80.850682 L85.032405,80.5495674 C84.9402187,80.1790716 84.8856665,79.903975 84.8652957,79.7090138 C84.8066004,79.3999204 84.7803601,79.0415663 84.7903728,78.6637855 C84.7883012,76.5018663 85.7153431,74.6216348 87.5466394,73.0827591 C88.9919271,71.8710159 90.9278393,71.0013221 93.3012047,70.4983082 L93.8287727,70.3977054 C94.0193601,69.8450838 94.2323899,69.3247246 94.4664809,68.8348931 C93.8998977,68.4848648 93.4009869,68.025561 92.9797611,67.4483091 L92.895516,67.3331363 L94.2448195,63.9924299 L95.1566697,63.3815282 L95.1867079,63.822099 C95.2157103,64.2460183 95.2623214,64.5738447 95.3248147,64.7955177 C95.4470392,65.3699943 95.701501,65.8691923 96.0961412,66.3073348 C96.55362,65.781425 97.0490782,65.3148362 97.5921832,64.9256075 C99.2304752,63.7613904 100.683359,63.6906216 101.912509,64.7139948 L102.599936,65.36375 L102.295756,67.112504 C103.136481,66.5904102 103.737936,65.925738 104.080441,65.1365265 C104.269302,64.701853 104.364596,64.2234694 104.363905,63.7152519 C104.354238,62.9340192 104.083548,62.2499203 103.536645,61.6272237 C103.189307,61.2317507 102.573696,60.7009842 101.70604,60.0494944 C100.793499,59.3546414 100.20033,58.8210997 99.8902804,58.4166071 C99.3409606,57.6884511 99.0630207,56.8919545 99.0623301,56.0475849 C99.0633659,55.8741318 99.0764861,55.7013726 99.0947852,55.529654 C97.5804441,54.7140776 96.8025575,53.1196969 96.7832226,50.7784272 C96.7718288,49.4907115 96.9606898,48.1596325 97.3439362,46.8226562 C98.2747761,43.4951322 100.162006,40.686233 102.953144,38.4754 C105.241574,36.6524081 107.541397,35.7185367 109.787705,35.7001507 L109.823612,35.7001507 C111.810279,35.7001507 113.030452,36.478955 113.451333,38.0154024 L113.646409,38.9541305 L110.997175,41.2936657 L110.853199,40.0458442 C110.789324,39.6226187 110.663992,39.2132694 110.481691,38.8386108 C110.045619,37.9279821 109.303986,37.4815138 108.213287,37.4714536 L108.208108,37.4714536 C107.521717,37.4714536 106.88539,37.5966867 106.319152,37.8443777 C104.351476,38.6939509 102.706623,40.3740174 101.429481,42.837745 C100.270074,45.0843094 99.6927877,47.4051116 99.7135037,49.7352803 C99.7045268,50.405503 99.7853193,51.041382 99.9538096,51.6311225 C100.049449,51.9891297 100.169256,52.3107117 100.312542,52.59795 C100.57529,52.2461872 100.876708,51.8989341 101.22094,51.5575784 C102.651035,50.1404667 104.181604,49.4067602 105.769487,49.3772732 C107.52517,49.3998221 108.561316,50.2955338 108.857555,52.039778 L108.884486,52.1976203 L107.135709,53.4589711 C107.30489,53.3802234 107.474761,53.2973128 107.646013,53.2088518 C108.21087,52.9205727 108.749832,52.5965624 109.249779,52.2461872 C109.471785,52.1004866 109.794955,51.8628558 110.216181,51.5360702 L110.79692,51.0861329 L110.379838,52.7661995 L109.726592,53.274417 C108.904512,53.8815028 107.921536,54.4375934 106.801145,54.9312409 C106.073667,55.255945 105.350678,55.5209814 104.652894,55.7176772 C103.774189,55.9757753 102.898592,56.1131502 102.045092,56.1395151 C102.112764,56.2352612 102.18458,56.3292727 102.265372,56.420856 C102.495665,56.6806887 103.078821,57.1781521 103.998267,57.8997169 L105.302341,58.9744322 C106.315009,59.8670218 106.825659,60.8147694 106.82704,61.7965139 C106.827731,62.6221506 106.633691,63.4526439 106.250444,64.2654451 C105.833707,65.1840526 105.266433,66.0030981 104.566922,66.6962166 C102.634117,68.6472169 100.332913,69.6369401 97.7278731,69.6369401 C97.7116456,69.6369401 97.695418,69.6365932 97.6788452,69.6365932 C97.6277457,69.637634 97.5769914,69.6383278 97.5262372,69.6383278 C97.2410466,69.6383278 96.9679404,69.6182072 96.701049,69.5866388 C96.6744635,69.6456128 96.6447705,69.6990364 96.6150775,69.7517661 L96.5215102,70.1954591 L97.3846777,70.2620651 C98.4408495,70.350873 99.4676736,70.5014303 100.437874,70.7081864 C103.687527,71.3905508 105.347571,73.2059108 105.370704,76.1039649 C105.381407,77.0891784 105.247098,78.1083887 104.970885,79.1331495 C104.636321,80.3709107 104.162269,81.5250675 103.56185,82.5640515 C102.953835,83.6065045 102.209784,84.455037 101.350069,85.087447 L101.350069,85.087447 Z M99.3823603,120.087305 C99.2649234,120.505561 99.1158558,121.032241 98.9344847,121.668097 C98.7534501,122.303576 98.6104394,122.821973 98.5047798,123.223665 C98.3994567,123.624605 98.3462904,123.877968 98.3462904,123.982626 C98.3462904,124.065449 98.37994,124.106485 98.4469026,124.106485 C98.4839171,124.106485 98.5576096,124.022156 98.6679802,123.853498 C98.7790237,123.684463 98.8910768,123.489829 99.0048123,123.268465 C99.0721114,123.118254 99.1215763,123.006819 99.1535433,122.933785 C99.1855104,122.86075 99.2070461,122.811809 99.2188235,122.787715 C99.2302643,122.762868 99.2480986,122.750821 99.2713168,122.750821 C99.3251561,122.750821 99.3520757,122.777174 99.3520757,122.829503 C99.3520757,122.900655 99.3093408,123.051996 99.2242074,123.282395 C99.1387375,123.51317 99.0226465,123.757875 98.875598,124.016509 C98.7285494,124.275519 98.5603016,124.495753 98.3718641,124.677588 C98.1827535,124.859422 97.9862401,124.950527 97.7826603,124.950527 C97.6921429,124.950527 97.6160949,124.904598 97.5541798,124.812363 C97.4922646,124.720505 97.4616435,124.60907 97.4616435,124.478059 C97.4616435,124.297731 97.4821697,124.097073 97.5238951,123.875709 C97.5656206,123.654722 97.6248438,123.394206 97.7012283,123.09416 C97.7779493,122.794115 97.8348171,122.552422 97.8711586,122.368329 L97.8516419,122.346117 C97.7338684,122.55581 97.5881658,122.815573 97.4135246,123.125031 C97.2388834,123.434111 97.0521283,123.727004 96.8525864,124.002579 C96.652708,124.278154 96.4403793,124.505165 96.2156003,124.683235 C95.9908212,124.861304 95.7596487,124.950527 95.5214098,124.950527 C95.3097541,124.950527 95.1472267,124.858669 95.0331547,124.674576 C94.9190827,124.491236 94.8618785,124.249166 94.8618785,123.949121 C94.8618785,123.464982 94.9574432,122.956373 95.1485727,122.421787 C95.3397022,121.887578 95.5900549,121.395157 95.9003039,120.945277 C96.2102163,120.495397 96.5463754,120.134363 96.9084447,119.862176 C97.2701775,119.590366 97.6123935,119.454461 97.9340833,119.454461 C98.1989053,119.454461 98.4384902,119.542554 98.6531744,119.718742 C98.7066772,119.550084 98.7517676,119.440531 98.7887821,119.389708 C98.8254601,119.338885 98.8910768,119.313661 98.984959,119.313661 L99.3921187,119.313661 C99.5028258,119.313661 99.558011,119.341897 99.558011,119.398367 C99.558011,119.439402 99.4994608,119.669048 99.3823603,120.087305 L99.3823603,120.087305 Z M91.6651024,122.750415 C91.4119375,123.298473 91.0783977,123.748161 90.6635066,124.100165 C90.2482902,124.451826 89.823637,124.627657 89.3895471,124.627657 C89.0683726,124.627657 88.8191126,124.528602 88.6407908,124.330493 C88.6212665,124.405555 88.568551,124.589954 88.4823187,124.883691 C88.3967373,125.177085 88.3332834,125.397473 88.2929332,125.54417 C88.2522576,125.690867 88.2177647,125.835165 88.1884782,125.977064 C88.1591918,126.118619 88.1445486,126.235497 88.1445486,126.328039 C88.1445486,126.454171 88.2564878,126.530947 88.4803663,126.558367 C88.7071734,126.585787 88.8204142,126.636857 88.8204142,126.711919 C88.8204142,126.790409 88.7670479,126.829483 88.6599897,126.829483 C88.5434948,126.829483 88.3615936,126.82297 88.1152622,126.80926 C87.8692562,126.79555 87.6762912,126.788695 87.5366926,126.788695 C87.4169436,126.788695 87.250011,126.79555 87.0358947,126.80926 C86.8221038,126.82297 86.6763225,126.829483 86.5982253,126.829483 C86.4722937,126.829483 86.4088398,126.786982 86.4088398,126.701637 C86.4088398,126.630002 86.4338959,126.585102 86.4843337,126.566251 C86.534446,126.547399 86.6359723,126.529576 86.7879363,126.512439 C86.9369717,126.491874 87.0557444,126.445945 87.1429529,126.374311 C87.2304867,126.302333 87.3082585,126.143983 87.3765934,125.898574 L89.000363,120.18219 C88.8675979,120.226405 88.7279993,120.292213 88.582218,120.379271 C88.4364367,120.46633 88.3537839,120.509859 88.3342596,120.509859 C88.3114812,120.509859 88.3004175,120.45022 88.3004175,120.330601 C88.3004175,120.258966 88.559765,120.105071 89.0781348,119.869602 L89.4572313,118.512998 C89.477081,118.451303 89.5102723,118.412915 89.5571305,118.397148 C89.6043142,118.382067 89.7234124,118.374184 89.9147503,118.374184 C90.1542482,118.374184 90.2743226,118.394749 90.2743226,118.435536 C90.2743226,118.462956 90.1740979,118.84855 89.9726724,119.593003 C90.0052129,119.58649 90.0354755,119.579293 90.0628095,119.57278 C90.0904689,119.565583 90.1236602,119.558385 90.1623833,119.549473 C90.2014319,119.541247 90.2388535,119.533364 90.2743226,119.526509 C90.3911429,119.505944 90.5369242,119.495662 90.7119919,119.495662 C91.0816517,119.495662 91.3959927,119.621108 91.6550148,119.872344 C91.9143624,120.123237 92.0441989,120.530424 92.0441989,121.093562 C92.0441989,121.650188 91.9179419,122.202701 91.6651024,122.750415 L91.6651024,122.750415 Z M86.3173908,118.409966 C86.2564248,118.669591 86.1838963,118.985801 86.0998053,119.357857 C86.0791329,119.44255 86.0553072,119.499504 86.0293791,119.529091 C86.0031006,119.558678 85.9659605,119.573472 85.9169074,119.573472 C85.8573429,119.573472 85.8138959,119.544255 85.7858655,119.484711 C85.7578352,119.425907 85.7441704,119.297204 85.7441704,119.097862 C85.7441704,118.556791 85.6751457,118.185475 85.5370963,117.984653 C85.3990469,117.783832 85.1786584,117.683236 84.8748796,117.683236 C84.7038945,117.683236 84.5301064,117.731315 84.3538657,117.827103 C84.1776249,117.922891 84.0329183,118.063798 83.9193955,118.249826 C83.806223,118.435854 83.7491112,118.654058 83.7491112,118.904807 C83.7491112,119.114504 83.8104275,119.323832 83.9327099,119.53168 C84.0549922,119.740268 84.2799357,120.069793 84.608241,120.520993 C84.9358456,120.972564 85.1793591,121.347578 85.3384313,121.645667 C85.4971531,121.944125 85.5763388,122.233337 85.5763388,122.513304 C85.5763388,122.936767 85.4831379,123.33582 85.2963858,123.709725 C85.1096337,124.08363 84.840192,124.383938 84.4877106,124.610647 C84.1348787,124.836988 83.7210808,124.950527 83.2466674,124.950527 C82.8801707,124.950527 82.5329449,124.885066 82.2046396,124.754144 C81.877035,124.623592 81.7127072,124.484533 81.7127072,124.336968 C81.7127072,124.156488 81.7841845,123.688645 81.9271393,122.933438 C81.9586734,122.782175 81.9884556,122.676402 82.016486,122.615379 C82.0441659,122.554725 82.093219,122.524399 82.1629445,122.524399 C82.2782192,122.524399 82.3356814,122.653472 82.3356814,122.911248 L82.3356814,123.408678 C82.3356814,123.810321 82.4117137,124.126161 82.5634279,124.3562 C82.7151421,124.586608 82.9397352,124.701627 83.2365064,124.701627 C83.6411944,124.701627 83.9603898,124.55998 84.1944432,124.275945 C84.4281461,123.99265 84.5451727,123.635018 84.5451727,123.204159 C84.5451727,122.887578 84.4736954,122.596147 84.3307407,122.330974 C84.1870852,122.065801 83.974405,121.743304 83.691649,121.363851 C83.4092433,120.984399 83.1941105,120.649327 83.047652,120.358265 C82.9011935,120.067204 82.8279642,119.752103 82.8279642,119.412963 C82.8279642,119.026113 82.9239681,118.681795 83.1159759,118.379639 C83.3079837,118.077852 83.5585049,117.844485 83.8668386,117.680278 C84.1758731,117.51681 84.5083829,117.434706 84.8643682,117.434706 C85.2168497,117.434706 85.5623236,117.485374 85.9011403,117.586709 C86.2396066,117.688044 86.4088398,117.791968 86.4088398,117.898851 C86.4088398,117.979845 86.3783568,118.15034 86.3173908,118.409966 L86.3173908,118.409966 Z M74.7230411,108.550801 L76.6139654,114.616273 L71.3866522,110.957967 L66.1656526,114.608608 L68.0457035,108.546272 L62.9281768,104.737453 L69.3178947,104.649305 L71.3761295,98.6451532 L73.4441855,104.652441 L79.8342541,104.750344 L74.7230411,108.550801 Z M78.4218194,122.132094 C77.6472974,122.131296 77.0165746,121.492195 77.0165746,120.717286 C77.0157765,119.943176 77.6449008,119.313262 78.4194227,119.313661 C79.1943441,119.314461 79.833854,119.944773 79.8342541,120.718884 C79.8350523,121.493393 79.1963413,122.132094 78.4218194,122.132094 L78.4218194,122.132094 Z M74.922737,122.629974 C74.7792721,123.029408 74.5732521,123.406253 74.3050515,123.760886 C74.0364763,124.115143 73.714336,124.402012 73.3378812,124.621494 C72.9614264,124.840975 72.5460152,124.950527 72.0912728,124.950527 C71.85641,124.950527 71.6354067,124.899704 71.4286375,124.798434 C71.2218684,124.697164 71.043942,124.548082 70.8948584,124.351189 C70.7457748,124.154296 70.6326511,123.916368 70.556611,123.636652 C70.4801963,123.357312 70.441989,123.058396 70.441989,122.739903 C70.441989,122.402211 70.5146578,122.031013 70.6599956,121.625932 C70.8053333,121.220475 71.0102296,120.84363 71.2746844,120.495397 C71.5395138,120.14641 71.8620287,119.862176 72.2418547,119.642695 C72.6224299,119.42359 73.0378411,119.313661 73.4884631,119.313661 C73.7383092,119.313661 73.9649312,119.365614 74.1679546,119.46839 C74.3709779,119.571919 74.5444093,119.718742 74.6878742,119.909988 C74.831339,120.101234 74.9422152,120.332762 75.0205028,120.604949 C75.0987905,120.87676 75.1381215,121.185464 75.1381215,121.530309 C75.1381215,121.86386 75.0662018,122.230541 74.922737,122.629974 L74.922737,122.629974 Z M67.2719907,121.584897 C67.0376387,121.875907 66.7216905,122.094636 66.3247785,122.240706 C65.9784689,122.372093 65.517039,122.469975 64.9401725,122.533598 C64.8990581,122.541128 64.8709106,122.750821 64.8550974,123.163054 C64.8550974,123.529734 64.9094949,123.81171 65.0182899,124.008603 C65.1270848,124.205119 65.2760454,124.303378 65.4654879,124.303378 C65.8408938,124.303378 66.2083932,124.02065 66.5679859,123.455194 C66.7036634,123.237971 66.8004404,123.06856 66.8589493,122.946584 C66.917142,122.824985 66.9639491,122.763997 66.9984219,122.763997 C67.0680001,122.763997 67.102473,122.801644 67.102473,122.876561 C67.102473,122.947337 67.054717,123.095666 66.9582563,123.320418 C66.8621119,123.54517 66.7251694,123.78611 66.5467962,124.042861 C66.3687393,124.299237 66.1549445,124.514577 65.9060443,124.688882 C65.6568279,124.863187 65.3870543,124.950527 65.0970397,124.950527 C64.7251127,124.950527 64.4268752,124.778858 64.20296,124.435895 C63.9790447,124.092555 63.8674033,123.671663 63.8674033,123.172842 C63.8674033,122.542634 63.9948579,121.928613 64.2500834,121.330404 C64.5053088,120.732572 64.8424468,120.246927 65.2614973,119.87347 C65.6802315,119.50039 66.1150952,119.313661 66.5657721,119.313661 C66.8997474,119.313661 67.1597168,119.42472 67.3456804,119.646083 C67.5313276,119.867447 67.6243094,120.144904 67.6243094,120.479209 C67.6243094,120.9257 67.5069753,121.294263 67.2719907,121.584897 L67.2719907,121.584897 Z M61.8641338,120.470173 C61.7815137,120.74876 61.6886105,120.887677 61.5861334,120.887677 C61.5191154,120.887677 61.4574163,120.824807 61.4006815,120.699443 C61.3443014,120.573702 61.2769288,120.420856 61.1992731,120.24128 C61.121972,120.061328 61.0297779,119.915635 60.9237548,119.803071 C60.8177317,119.690507 60.6819228,119.634413 60.5159736,119.634413 C60.3425779,119.634413 60.2014502,119.697283 60.0918811,119.823024 C59.9826667,119.948388 59.9277049,120.123069 59.9277049,120.348197 C59.9277049,120.535302 59.9755748,120.713372 60.0709602,120.88203 C60.1659909,121.050312 60.3376136,121.301416 60.5847645,121.634968 C60.8319154,121.968519 61.0159488,122.249364 61.1358011,122.477881 C61.2560079,122.706397 61.315934,122.942443 61.315934,123.185642 C61.315934,123.414535 61.2733829,123.632887 61.1886353,123.840321 C61.1042423,124.048508 60.9829717,124.237496 60.8258873,124.408036 C60.6684483,124.578576 60.4822873,124.71147 60.2670498,124.807093 C60.0514576,124.902716 59.8220364,124.950527 59.5780768,124.950527 C59.3376632,124.950527 59.1128516,124.92041 58.9025784,124.860175 C58.6923051,124.800316 58.5281288,124.718246 58.409695,124.613211 C58.2912611,124.508177 58.2320442,124.389965 58.2320442,124.259331 C58.2320442,123.981873 58.2586386,123.721357 58.3118275,123.478158 C58.3437408,123.320794 58.3760087,123.213501 58.409695,123.157407 C58.4433812,123.10169 58.4972793,123.073078 58.5713891,123.073078 C58.6245779,123.073078 58.6660653,123.090019 58.695851,123.123901 C58.7259914,123.157783 58.7579047,123.227054 58.7912364,123.331712 C58.8249226,123.436747 58.8593181,123.548934 58.8944227,123.668651 C58.9795249,123.942344 59.0922853,124.174625 59.233413,124.365871 C59.3748954,124.556741 59.5514824,124.652364 59.7635286,124.652364 C59.9472075,124.652364 60.1035827,124.576317 60.2326543,124.424224 C60.3613713,124.272507 60.4259071,124.059426 60.4259071,123.78611 C60.4259071,123.564746 60.369527,123.358441 60.2560574,123.167195 C60.143297,122.975949 59.978057,122.743291 59.7610465,122.469599 C59.5433268,122.195906 59.3795051,121.954966 59.2681631,121.746779 C59.1571757,121.538592 59.1011501,121.31271 59.1011501,121.068759 C59.1011501,120.551491 59.2688723,120.129469 59.6043166,119.803071 C59.9401156,119.477049 60.3340677,119.313661 60.786173,119.313661 C60.9875814,119.313661 61.1801251,119.338132 61.3634493,119.387073 C61.5474828,119.436014 61.6974754,119.497755 61.8141362,119.573048 C61.9307971,119.648719 61.9889503,119.723636 61.9889503,119.79893 C61.9889503,119.967964 61.947463,120.191963 61.8641338,120.470173 L61.8641338,120.470173 Z M52.602122,110.958047 L47.3809057,114.607912 L49.2610347,108.546404 L44.1436464,104.737668 L50.5332786,104.649174 L52.5915989,98.6451532 L54.6600915,104.652309 L61.0497238,104.749862 L55.9386494,108.550934 L57.8293014,114.616273 L52.602122,110.958047 Z M55.1264597,123.507523 C54.9342975,123.876839 54.7059357,124.209637 54.4413744,124.505918 C54.1768131,124.802199 53.9251077,124.950527 53.6855816,124.950527 C53.5475496,124.950527 53.4419957,124.904598 53.3695966,124.812363 C53.2971974,124.720505 53.2609979,124.612835 53.2609979,124.488977 C53.2609979,124.301495 53.2806201,124.100085 53.3191878,123.884368 C53.3577556,123.668651 53.4074877,123.43637 53.4680459,123.186771 C53.5289423,122.937549 53.5827342,122.711292 53.6300981,122.508751 L53.6097993,122.480893 C53.4348911,122.81482 53.2187087,123.169077 52.9612519,123.54404 C52.7037952,123.919003 52.4213033,124.247284 52.1134378,124.528506 C51.8055723,124.809728 51.5122543,124.950527 51.2331455,124.950527 C51.0883472,124.950527 50.9729823,124.895939 50.8873889,124.78714 C50.8014572,124.678341 50.7584914,124.5398 50.7584914,124.371142 C50.7584914,124.123426 50.8410399,123.725122 51.0054604,123.175477 C51.1695425,122.62621 51.3694859,122.003907 51.6042756,121.308193 C51.8394037,120.612102 51.9564602,120.240151 51.9564602,120.19121 C51.9564602,120.105375 51.9280419,120.061705 51.8712052,120.061705 C51.7538103,120.061705 51.5555585,120.262739 51.2771263,120.664055 C51.2202896,120.746501 51.1384177,120.880524 51.0328638,121.066123 C50.9269716,121.251722 50.8589705,121.34471 50.8288606,121.34471 C50.7551082,121.34471 50.718232,121.298028 50.718232,121.203911 C50.718232,121.140288 50.7716856,121.002124 50.8796077,120.790548 C50.9871914,120.578596 51.1248851,120.359868 51.293027,120.135116 C51.4615073,119.909988 51.6529928,119.716859 51.8681603,119.555731 C52.0829895,119.394602 52.3052617,119.313661 52.5336234,119.313661 C52.7826223,119.313661 52.9071217,119.452578 52.9071217,119.730036 C52.9071217,119.936341 52.8479168,120.232622 52.7301837,120.618878 C52.6121122,121.005135 52.4125071,121.634215 52.1310301,122.506493 C51.8495531,123.378018 51.7091529,123.866674 51.7091529,123.971709 C51.7091529,124.132837 51.7629448,124.213402 51.8708669,124.213402 C52.0021326,124.213402 52.2162851,124.042861 52.5129863,123.701404 C52.8093491,123.360324 53.1094333,122.915714 53.4125624,122.368329 C53.7160298,121.820943 53.9552176,121.25624 54.1304641,120.674972 C54.2045548,120.442691 54.2637597,120.235257 54.3074022,120.053422 C54.351383,119.871588 54.3865676,119.731918 54.4136327,119.634413 C54.4403595,119.536907 54.4708077,119.471402 54.5046391,119.43752 C54.5381321,119.403637 54.5888792,119.386696 54.6562036,119.386696 L55.2272772,119.386696 C55.2949399,119.386696 55.328433,119.413426 55.328433,119.465378 C55.328433,119.510555 55.2106998,119.934458 54.9745568,120.736713 C54.7387522,121.539344 54.5425302,122.23807 54.385891,122.832514 C54.2289134,123.426959 54.1507629,123.836556 54.1507629,124.061308 C54.1507629,124.162955 54.1812112,124.213402 54.241431,124.213402 C54.3496914,124.213402 54.5469283,123.975473 54.8331417,123.498864 C54.897083,123.3863 54.9789549,123.228936 55.0784191,123.026396 C55.1778834,122.823856 55.2323519,122.713174 55.2425013,122.694727 C55.252989,122.675903 55.2746411,122.666492 55.3084724,122.666492 C55.37918,122.666492 55.4143646,122.709786 55.4143646,122.795997 C55.4143646,122.900655 55.3186219,123.138207 55.1264597,123.507523 L55.1264597,123.507523 Z M49.6920303,118.602135 C49.6335596,118.630671 49.5133292,118.6582 49.3313391,118.685057 C49.265925,118.695128 49.2041653,118.732729 49.1456946,118.798193 C49.0872238,118.863322 49.0455635,118.942551 49.020348,119.03588 C49.0126737,119.063073 48.9308147,119.369918 48.7744055,119.95675 C48.6176309,120.543582 48.4557401,121.156599 48.2883676,121.795131 C48.1209952,122.434335 47.9737221,123.014117 47.8461828,123.536155 C47.7186436,124.057522 47.6546912,124.351945 47.6546912,124.418753 C47.6546912,124.482203 47.6740597,124.530882 47.7124311,124.564118 C47.750437,124.59769 47.8169475,124.624547 47.911597,124.64469 C48.0427906,124.674569 48.1337857,124.700755 48.1849476,124.72224 C48.2353786,124.744062 48.2613249,124.776626 48.2613249,124.82027 C48.2613249,124.90722 48.1973726,124.950527 48.0698333,124.950527 C48.0592355,124.950527 47.9623934,124.943813 47.7804033,124.930384 C47.5984132,124.916956 47.3893804,124.910577 47.1525739,124.910577 C46.8430446,124.910577 46.5645778,124.916956 46.3171736,124.930384 C46.0697693,124.943813 45.9385757,124.950527 45.923958,124.950527 C45.7967842,124.950527 45.7328318,124.910577 45.7328318,124.830005 C45.7328318,124.776626 45.7584127,124.736676 45.8095746,124.709819 C45.8600056,124.682962 45.9385757,124.66114 46.0441884,124.64469 C46.2404307,124.607761 46.3855112,124.551025 46.4783335,124.474146 C46.5711557,124.396931 46.6391279,124.271709 46.682981,124.097808 L47.993456,119.292032 L47.9718949,119.272225 C47.2472234,120.405938 46.6756721,121.316064 46.2568756,122.003275 C45.8384445,122.690486 45.4861585,123.280004 45.2007483,123.771828 C44.9146072,124.263316 44.7344443,124.565797 44.6598941,124.679604 C44.585344,124.793412 44.5224879,124.850148 44.4716915,124.850148 C44.427473,124.850148 44.396045,124.837727 44.3759457,124.812884 C44.3558464,124.787369 44.3459795,124.738355 44.3459795,124.664497 L44.3459795,119.272225 L44.3240529,119.272225 C43.1919137,122.278563 42.625844,123.965536 42.625844,124.333481 C42.625844,124.437217 42.6510595,124.510739 42.7022214,124.554382 C42.7530178,124.59769 42.8425511,124.627904 42.9697249,124.64469 C43.1188253,124.66114 43.2145711,124.680612 43.2562314,124.702097 C43.2982573,124.723919 43.3190875,124.766891 43.3190875,124.830005 C43.3190875,124.910577 43.2518461,124.950527 43.116998,124.950527 C43.0556038,124.950527 42.9335462,124.943813 42.7515561,124.930384 C42.5692005,124.916956 42.3963464,124.910577 42.2326284,124.910577 C42.1489422,124.910577 42.0199412,124.916956 41.8448945,124.930384 C41.6702132,124.943813 41.5390195,124.950527 41.4516789,124.950527 C41.3679927,124.950527 41.3259669,124.910577 41.3259669,124.830005 C41.3259669,124.770248 41.3416809,124.732312 41.372378,124.717205 C41.4034406,124.702097 41.4955319,124.677926 41.6482867,124.64469 C41.8302768,124.604404 41.9578161,124.56244 42.030539,124.519132 C42.103262,124.475825 42.15954,124.396931 42.2001041,124.283124 C42.5823564,123.143032 42.997864,121.968361 43.447723,120.759111 C43.8972167,119.550533 44.1219635,118.917708 44.1219635,118.860637 C44.1219635,118.8039 44.1018642,118.762943 44.0616656,118.737764 C44.0218324,118.712921 43.9527639,118.695128 43.85446,118.685057 C43.7013398,118.671964 43.5997469,118.6535 43.548585,118.63 C43.4977886,118.606499 43.4722077,118.566213 43.4722077,118.509477 C43.4722077,118.41917 43.539449,118.374184 43.6742971,118.374184 C43.6812405,118.374184 43.8453239,118.382241 44.1658166,118.399027 C44.4059119,118.412455 44.5732844,118.41917 44.6682993,118.41917 C44.7187303,118.415813 44.7644105,118.413463 44.8046092,118.411784 C44.8444423,118.40977 44.893777,118.409098 44.9518823,118.409098 C45.0030442,118.40272 45.0684583,118.399027 45.1484901,118.399027 C45.217924,118.399027 45.2614116,118.40742 45.2793183,118.424206 C45.2975904,118.440991 45.3070919,118.472884 45.3070919,118.519213 L45.3070919,122.999009 L45.328653,122.999009 L47.5023019,119.45754 C47.6294757,119.250067 47.7493407,119.048973 47.8626277,118.853251 C47.9751839,118.657528 48.0508304,118.536335 48.0892018,118.48967 C48.1272077,118.44267 48.1703299,118.41917 48.2174719,118.41917 L48.4520857,118.41917 C48.7689239,118.41917 49.0404473,118.412455 49.265925,118.399027 C49.3423023,118.39567 49.4161216,118.39097 49.4870174,118.38392 C49.5579131,118.377541 49.6079787,118.374184 49.637214,118.374184 C49.7318635,118.374184 49.7790055,118.412455 49.7790055,118.48967 C49.7790055,118.536335 49.7501356,118.573935 49.6920303,118.602135 L49.6920303,118.602135 Z M38.9749052,122.132094 C38.1996942,122.131296 37.5690608,121.492195 37.5690608,120.717286 C37.5682628,119.943176 38.1972979,119.313262 38.9721094,119.313661 C39.7465216,119.314461 40.3863402,119.944773 40.3867403,120.718884 C40.3875384,121.493393 39.7485185,122.132094 38.9749052,122.132094 L38.9749052,122.132094 Z M35.4977249,118.192706 C35.335995,118.728278 35.1112965,119.447975 34.8242922,120.351459 C34.5369565,121.255279 34.3337999,121.901393 34.2151538,122.289465 C34.0958449,122.677873 33.987804,123.049817 33.8903683,123.406641 C33.7929327,123.763129 33.7445463,124.006388 33.7445463,124.137089 C33.7445463,124.240575 33.7892871,124.292654 33.878106,124.292654 C33.9805129,124.292654 34.17207,124.073586 34.4527774,123.635116 C34.5618126,123.454352 34.6449974,123.302819 34.7026634,123.180518 C34.7603294,123.058552 34.8093786,122.997402 34.8488169,122.997402 C34.911454,122.997402 34.9429384,123.027641 34.9429384,123.087784 C34.9429384,123.184886 34.8537881,123.389841 34.6754875,123.702986 C34.4971869,124.015796 34.2827622,124.302061 34.0315506,124.561112 C33.7806704,124.820498 33.5430467,124.950527 33.3186796,124.950527 C33.0214015,124.950527 32.8729282,124.764723 32.8729282,124.393115 C32.8729282,124.135409 32.9660554,123.689547 33.1529728,123.055192 C33.3392273,122.420838 33.6232489,121.487114 34.0043747,120.253685 C34.3855005,119.020256 34.5767262,118.333151 34.5767262,118.192706 C34.5767262,118.139283 34.5664524,118.097284 34.5468989,118.067044 C34.5270141,118.037141 34.475645,118.020341 34.393123,118.016982 L34.1902978,118.007238 C34.124015,118.003878 34.0789428,117.99447 34.0537553,117.97935 C34.0292307,117.964567 34.0169684,117.936679 34.0169684,117.896696 C34.0169684,117.832858 34.0431501,117.791194 34.0958449,117.771035 C34.148871,117.750875 34.2446496,117.741132 34.383512,117.741132 C34.5942911,117.741132 34.7679519,117.727692 34.9031687,117.700812 C35.0847834,117.667213 35.2402165,117.614798 35.368805,117.54256 C35.4977249,117.470657 35.5749443,117.434706 35.6014574,117.434706 C35.6279705,117.434706 35.6495124,117.443106 35.6660831,117.459906 C35.6826538,117.476705 35.6906077,117.498209 35.6906077,117.525088 C35.6906077,117.548272 35.6263135,117.771035 35.4977249,118.192706 L35.4977249,118.192706 Z M30.6421565,121.584897 C30.4078045,121.875907 30.0918562,122.094636 29.6949443,122.240706 C29.3486346,122.372093 28.8872047,122.469975 28.3103383,122.533598 C28.2692239,122.541128 28.2410763,122.750821 28.2252631,123.163054 C28.2252631,123.529734 28.2796606,123.81171 28.3884556,124.008603 C28.4972506,124.205119 28.6462112,124.303378 28.8353373,124.303378 C29.2110596,124.303378 29.5785589,124.02065 29.9381517,123.455194 C30.0735129,123.237971 30.1706061,123.06856 30.229115,122.946584 C30.2873077,122.824985 30.3341148,122.763997 30.3685877,122.763997 C30.4381659,122.763997 30.4726387,122.801644 30.4726387,122.876561 C30.4726387,122.947337 30.4248828,123.095666 30.3284221,123.320418 C30.2322777,123.54517 30.0953351,123.78611 29.916962,124.042861 C29.738905,124.299237 29.5251102,124.514577 29.2762101,124.688882 C29.0269936,124.863187 28.75722,124.950527 28.4672055,124.950527 C28.0952784,124.950527 27.797041,124.778858 27.5731257,124.435895 C27.3492104,124.092555 27.2375691,123.671663 27.2375691,123.172842 C27.2375691,122.542634 27.3650237,121.928613 27.6202491,121.330404 C27.8754746,120.732572 28.2126125,120.246927 28.631663,119.87347 C29.0503972,119.50039 29.4852609,119.313661 29.9359378,119.313661 C30.2699132,119.313661 30.5298826,119.42472 30.7158461,119.646083 C30.9014934,119.867447 30.9944751,120.144904 30.9944751,120.479209 C30.9944751,120.9257 30.877141,121.294263 30.6421565,121.584897 L30.6421565,121.584897 Z M31.7482649,104.649436 L33.8065425,98.6451532 L35.8749922,104.652572 L42.2651934,104.750129 L37.154225,108.551366 L39.0448378,114.616273 L33.8170654,110.957887 L28.5963082,114.608608 L30.4763981,108.546488 L25.359116,104.737934 L31.7482649,104.649436 Z M24.3419197,120.305467 L23.4822942,120.305467 L22.783828,122.796417 C22.5691663,123.552574 22.4618355,123.970158 22.4618355,124.049516 C22.4618355,124.197836 22.5120754,124.271996 22.6132079,124.271996 C22.7433751,124.271996 22.9371578,124.052981 23.1942299,123.614258 C23.3048231,123.424353 23.391275,123.263903 23.4529331,123.13291 C23.5149175,123.001917 23.5687461,122.936074 23.6140925,122.936074 C23.6597652,122.936074 23.6826016,122.977312 23.6826016,123.060483 C23.6826016,123.112118 23.6330141,123.24415 23.5335128,123.456581 C23.4343378,123.668665 23.3080854,123.886987 23.1550819,124.111547 C23.0020783,124.33576 22.8229761,124.531904 22.6181014,124.699284 C22.4129004,124.866664 22.2112881,124.950527 22.0122856,124.950527 C21.7389018,124.950527 21.6022099,124.784533 21.6022099,124.453238 C21.6022099,124.274076 21.6338546,124.040852 21.6974702,123.754261 C21.7610857,123.467671 21.8693953,123.067414 22.0220726,122.553144 L22.6911777,120.305467 L21.9636768,120.305467 L22.0419728,119.932587 L22.783828,119.932587 L23.2036907,118.513841 C23.2235909,118.45874 23.2601291,118.42166 23.3136314,118.4026 C23.3674599,118.38354 23.500237,118.374184 23.7119626,118.374184 C23.903788,118.374184 24.0000269,118.401561 24.0000269,118.456661 C24.0000269,118.4778 23.991871,118.519039 23.9755593,118.581416 C23.9592477,118.643448 23.9240144,118.769589 23.8705121,118.959495 C23.8166836,119.149054 23.727948,119.473764 23.6043055,119.932587 L24.4198895,119.932587 L24.3419197,120.305467 Z M15.0328858,110.957539 L9.8117778,114.608608 L11.6918677,108.54614 L6.57458564,104.737586 L12.9637345,104.649087 L15.0220121,98.6451532 L17.0911633,104.652572 L23.480663,104.750129 L18.3693439,108.551017 L20.2603074,114.616273 L15.0328858,110.957539 Z M19.5087469,122.629974 C19.3649075,123.029408 19.1588875,123.406253 18.8906869,123.760886 C18.6224863,124.115143 18.2999713,124.402012 17.9235166,124.621494 C17.5474364,124.840975 17.1316505,124.950527 16.6769082,124.950527 C16.4420454,124.950527 16.2214167,124.899704 16.0146475,124.798434 C15.8075037,124.697164 15.6295773,124.548082 15.4804938,124.351189 C15.3317848,124.154296 15.2186611,123.916368 15.1426209,123.636652 C15.0662062,123.357312 15.0276243,123.058396 15.0276243,122.739903 C15.0276243,122.402211 15.1002932,122.031013 15.2456309,121.625932 C15.3913433,121.220475 15.5962396,120.84363 15.8606943,120.495397 C16.1255237,120.14641 16.4476641,119.862176 16.8278647,119.642695 C17.2080652,119.42359 17.6238511,119.313661 18.074473,119.313661 C18.3243191,119.313661 18.5505666,119.365614 18.7535899,119.46839 C18.9566133,119.571919 19.1300447,119.718742 19.2738841,119.909988 C19.417349,120.101234 19.5282252,120.332762 19.6065128,120.604949 C19.6848004,120.87676 19.7237569,121.185464 19.7237569,121.530309 C19.7237569,121.86386 19.6522118,122.230541 19.5087469,122.629974 L19.5087469,122.629974 Z M12.8597287,118.685057 C12.6309521,118.711914 12.488789,118.817329 12.4339704,119.000966 C12.3941355,119.15506 12.3119075,119.447468 12.1883827,119.878864 C12.0644926,120.310259 11.9135585,120.839012 11.7348496,121.464115 C11.5565062,122.089554 11.3821829,122.722379 11.2107832,123.362926 C11.0397489,124.003136 10.9542318,124.355303 10.9542318,124.418753 C10.9542318,124.542632 11.0561945,124.617833 11.26012,124.64469 C11.3620827,124.658119 11.437367,124.673562 11.4867038,124.692026 C11.5356751,124.710826 11.5605263,124.741712 11.5605263,124.785019 C11.5605263,124.831684 11.5382333,124.870963 11.4947439,124.902856 C11.4512544,124.934749 11.3909538,124.950527 11.3145732,124.950527 C11.2893566,124.950527 11.169121,124.943813 10.9542318,124.930384 C10.7393426,124.916956 10.5463809,124.910577 10.3753466,124.910577 C10.1348754,124.910577 9.92181353,124.916956 9.73652643,124.930384 C9.55087387,124.943813 9.45037298,124.950527 9.43612013,124.950527 C9.25777673,124.950527 9.16860503,124.913599 9.16860503,124.840412 C9.16860503,124.773269 9.1930907,124.727612 9.24206204,124.702097 C9.29139884,124.677254 9.36704861,124.658119 9.46864587,124.64469 C9.59253606,124.62119 9.68463143,124.584261 9.7445665,124.533904 C9.80450158,124.483882 9.86370574,124.378131 9.92181353,124.215645 C9.98028678,124.053494 10.0840768,123.708042 10.233549,123.179625 C10.3826558,122.651543 10.5266462,122.149648 10.6647892,121.674945 L8.28383172,121.674945 C7.75245609,123.363597 7.48640282,124.275066 7.48640282,124.408682 C7.48640282,124.539275 7.59092375,124.617833 7.80069652,124.64469 C8.00973838,124.671547 8.11462476,124.721569 8.11462476,124.795091 C8.11462476,124.855184 8.09087,124.896477 8.04372595,124.917963 C7.99621644,124.939449 7.91983576,124.950527 7.81421846,124.950527 C7.77767268,124.950527 7.65962981,124.943813 7.45935894,124.930384 C7.25908808,124.916956 7.04602618,124.910577 6.82017327,124.910577 C6.66010276,124.910577 6.47627749,124.916956 6.26869747,124.930384 C6.0614829,124.943813 5.93211084,124.950527 5.88131221,124.950527 C5.71758712,124.950527 5.63535912,124.910577 5.63535912,124.830005 C5.63535912,124.726605 5.72453082,124.664497 5.90287422,124.64469 C6.09949051,124.624547 6.23872993,124.587954 6.32059247,124.533904 C6.40282047,124.480525 6.45617731,124.390553 6.48175936,124.263316 C6.51465056,124.129366 6.60930413,123.796671 6.76572006,123.264897 C6.92213599,122.733122 7.11144313,122.09929 7.33364146,121.363736 C7.5558398,120.628182 7.72687405,120.04605 7.84710966,119.618012 C7.96734527,119.189974 8.02728035,118.937851 8.02728035,118.860637 C8.02728035,118.8039 8.00425651,118.763615 7.95893974,118.74045 C7.91325752,118.716614 7.84345508,118.698486 7.74880151,118.685057 C7.55949438,118.664914 7.46484081,118.619928 7.46484081,118.549428 C7.46484081,118.503099 7.48201733,118.462141 7.51637036,118.426556 C7.55108885,118.391641 7.60115657,118.374184 7.66657351,118.374184 C7.77584539,118.374184 7.94249414,118.38157 8.16651977,118.396677 C8.39017993,118.411784 8.58204527,118.41917 8.74248124,118.41917 C8.87733517,118.41917 9.03923297,118.411784 9.2285401,118.396677 C9.41784724,118.38157 9.55781757,118.374184 9.64881656,118.374184 C9.76905217,118.374184 9.82898725,118.422527 9.82898725,118.519213 C9.82898725,118.579642 9.8103489,118.620599 9.77197584,118.642421 C9.73396823,118.664243 9.65831846,118.678343 9.54539201,118.685057 C9.39226519,118.691771 9.27787691,118.738772 9.20149623,118.825722 C9.12475009,118.912337 9.03557839,119.114774 8.93361567,119.432361 C8.83165294,119.750284 8.64782768,120.380424 8.38250532,121.323786 L10.7521336,121.323786 C10.9816411,120.500946 11.1508481,119.900014 11.26012,119.520319 C11.3690264,119.140624 11.423845,118.917708 11.423845,118.850565 C11.423845,118.7569 11.3492917,118.701843 11.1998194,118.685057 C11.021476,118.6582 10.9323043,118.603142 10.9323043,118.519213 C10.9323043,118.422527 11.0105123,118.374184 11.1672937,118.374184 C11.2615818,118.374184 11.4154395,118.38157 11.6285014,118.396677 C11.8415633,118.411784 12.0045575,118.41917 12.1171185,118.41917 C12.1752263,118.41917 12.3148311,118.411784 12.5352022,118.396677 C12.7552078,118.38157 12.9039491,118.374184 12.9803298,118.374184 C13.0928908,118.374184 13.1491713,118.41917 13.1491713,118.509477 C13.1491713,118.603142 13.0530559,118.661557 12.8597287,118.685057 L12.8597287,118.685057 Z M95.3987129,114.616273 L90.170832,110.957967 L84.9503173,114.608608 L86.8300955,108.546272 L81.7127072,104.737801 L88.1023394,104.649653 L90.1606597,98.6451532 L92.2291523,104.652441 L98.6187845,104.750344 L93.5080609,108.55115 L95.3987129,114.616273 Z M21.3938961,62.7596266 L21.3772261,43.0555625 L16.615155,39.549196 L16.6137658,37.579106 L90.1643567,37.6339479 L90.1657459,39.3853734 L85.1939103,43.1033734 L85.2105803,62.8074375 L67.2548773,62.7940786 C67.2548773,62.7940786 66.5946747,49.6573327 52.5338541,49.8654507 C52.5338541,49.8654507 40.6363168,50.2950457 39.1325415,62.5539695 L21.6321386,89.2503767 L0,89.2345569 L21.3938961,62.7596266 Z M30.2738679,34.7983819 C34.1548879,19.9691797 46.4576721,16.7361872 51.4430359,16.0319089 C51.3660622,16.0047409 51.7611235,15.8744738 52.6169724,15.7981944 C52.7948203,15.7469932 52.9856728,15.6895224 53.2046436,15.6174227 C53.0155484,15.3206645 52.8264533,15.1015789 52.8261018,14.7424736 C52.8253988,14.1493055 53.0770571,13.8372218 53.0767056,13.2437054 C53.0756512,11.9943255 52.82329,11.306766 52.8222355,10.0573861 C52.8215326,9.27648018 53.0728393,8.83935396 53.0721364,8.058448 C53.071082,6.82474196 51.290143,6.99506445 50.0448564,6.99436784 C49.7615652,6.99401953 49.6350331,7.24375618 49.3513904,7.24375618 C48.7686399,7.24305957 48.279031,6.75856349 48.2786795,6.18106925 C48.2769221,4.4475416 51.0525439,5.73001072 52.5649536,4.87212874 C53.2109702,4.51337177 52.943144,3.74779134 52.942441,2.99788477 C52.9420895,2.63877948 53.1933963,2.48308592 53.1930448,2.12398063 C53.1926933,1.62381071 52.9406836,1.37372575 52.9403321,0.874600749 C52.9399807,0.374430826 53.3803826,-3.55271368e-15 53.885105,-3.55271368e-15 C54.468207,0.000696615491 55.082942,0.297803122 55.0832935,0.876342288 C55.0836449,1.26644696 54.8319867,1.48483592 54.8323382,1.8752889 C54.8330411,2.95295307 54.6295354,3.73351072 55.2133403,4.62378532 C55.7338792,5.4367356 56.6951715,5.12465186 57.6726318,5.12569678 C58.1140882,5.12604509 58.3657464,4.87630844 58.8072028,4.87665674 C59.3906563,4.87700505 59.6275524,5.549239 59.6282554,6.12673324 C59.6289583,7.18872356 58.1791116,7.24967741 57.1064008,7.2489808 L55.5936395,7.24828418 C55.2312657,7.24793588 54.8365559,7.45065098 54.8372589,7.80975627 C54.8393677,10.4178847 55.0931348,11.8863501 55.0952437,14.4941302 C55.0952437,14.8845832 54.7964874,15.0562989 54.5919272,15.3683827 L54.5919272,15.7431618 C57.0037692,15.7452516 56.6094109,15.7449033 53.9617272,15.7428135 C53.4285351,15.7424652 52.9835639,15.7658018 52.6169724,15.7981944 C52.3582846,15.8727323 52.1470463,15.9249784 51.9737677,15.9625957 C52.9768859,15.8427778 53.5736955,15.8358116 53.5736955,15.8358116 C73.7158448,16.6094031 77.0165746,35.7001507 77.0165746,35.7001507 L30.0552486,35.6656682 L30.2738679,34.7983819 Z M115.954434,41.8136038 C116.671286,41.3033768 117.22695,40.9487723 117.606868,40.7598741 C118.094937,40.5192136 118.767073,40.3975389 119.605596,40.3975389 L119.612875,40.3975389 C120.038203,40.397875 120.526272,40.4237561 121.063218,40.4745099 C121.504491,40.5252637 121.888569,40.5760176 122.210251,40.6271075 L123.399227,40.8855822 L122.634538,41.7178102 L122.381491,42.0495586 L121.625469,45.1747832 C121.162357,47.0338515 120.928028,48.2754712 120.928722,48.8663665 C120.918322,49.0545926 120.946747,49.1403026 120.972052,49.1708894 L121.002556,49.1772756 C121.033754,49.1729061 121.091989,49.1564363 121.184542,49.1026574 L122.114231,48.5221817 C122.453939,48.3057218 122.773195,48.0872451 123.060559,47.8741464 L123.892149,47.2698063 L123.873084,48.3410142 L124.36774,48.0472471 L125.398301,47.374339 L125.37369,48.3282417 C125.381663,48.8354437 125.498134,49.2431547 125.72137,49.5301994 C125.994869,49.8797621 126.342896,50.0461405 126.781743,50.0303429 L126.782436,50.0303429 C127.249707,50.0303429 127.663249,49.8606034 128.054606,49.5113768 C128.450816,49.1567724 128.65048,48.7739341 128.664346,48.3416864 C128.657067,48.1201847 128.599524,47.9269169 128.488253,47.7652441 C128.376288,47.6314692 128.187369,47.4603852 127.939868,47.2748481 L127.214696,46.7686545 C126.9048,46.5811006 126.668391,46.3992608 126.505124,46.2217906 C125.972684,45.7428225 125.693985,45.1576412 125.693639,44.49885 C125.68324,43.982909 125.902316,43.4027694 126.364734,42.7305335 C126.722121,42.2192982 127.16374,41.7648667 127.678848,41.3773227 C128.206781,40.9780146 128.776311,40.6916421 129.370106,40.5266082 C129.635632,40.4469483 129.940675,40.4056058 130.27137,40.4056058 C130.288356,40.4042613 130.299448,40.4052696 130.314007,40.4052696 C130.985796,40.4052696 131.569192,40.6301325 132.046169,41.0734721 L132.430939,41.4852166 L132.3318,41.643192 C132.20389,41.8475517 132.102671,41.9897296 132.02329,42.0767841 C131.905086,42.2166092 131.731766,42.3971045 131.499863,42.6229758 L130.873484,43.2101738 L130.376056,42.6310426 C130.010697,42.2485404 129.620727,42.0542642 129.192626,42.0465335 C128.8342,42.0525837 128.520144,42.1705611 128.235552,42.44685 C127.950614,42.7228028 127.815424,43.0387537 127.82305,43.4118446 C127.808838,43.626624 127.838302,43.7916579 127.910057,43.9244245 C127.99429,44.1375232 128.107988,44.2904569 128.270909,44.4212068 C128.470227,44.6124579 128.69797,44.7748028 128.964883,44.9189974 L129.7989,45.4245188 C130.155939,45.6591291 130.416959,45.9226456 130.58196,46.2130515 C130.723736,46.487996 130.793411,46.8062997 130.794104,47.1672903 C130.795144,48.371937 130.162179,49.4599508 128.912194,50.4014171 C127.847315,51.2097808 126.63858,51.6373228 125.319961,51.6712707 C123.79717,51.6332894 123.004057,50.8703017 123.01307,49.4653287 L123.031788,49.2118958 L121.436896,50.2915066 L119.868002,51.3257415 C119.526562,51.5549739 119.233997,51.6675734 118.97783,51.6675734 C118.955992,51.6675734 118.936233,51.6672373 118.915088,51.6672373 C118.523385,51.6672373 118.27311,51.4296019 118.260285,51.0276049 L118.260285,50.9328196 C118.260285,50.7385434 118.285936,50.4471292 118.338972,50.0424432 C118.36289,49.7779184 118.402754,49.497596 118.45579,49.2186181 L118.467576,49.1423193 L117.857489,49.5755754 L115.886839,50.8978633 C115.465324,51.1707911 115.0861,51.3825454 114.756445,51.5290928 C114.5547,51.6269032 114.339783,51.674968 114.123826,51.6632039 L114.120707,51.6632039 C113.999036,51.6632039 113.886378,51.6457258 113.788972,51.6104334 L113.55187,51.5025395 C113.167446,51.3321277 112.913012,50.8430761 112.776436,50.0084953 C112.7234,49.77691 112.699828,49.5295272 112.709187,49.2875223 C112.699828,48.8885503 112.744198,48.4152962 112.840911,47.8956579 C113.002445,46.8704982 113.269358,45.8493719 113.632637,44.8672353 C113.889844,44.1264313 114.16473,43.5563753 114.47116,43.1284972 C114.72802,42.7715399 115.213663,42.341309 115.954434,41.8136038 L115.954434,41.8136038 Z M133.268663,43.1294746 C133.529962,42.7710446 134.019026,42.3409959 134.764498,41.8141106 C135.486216,41.303701 136.046543,40.9489696 136.430108,40.7600037 C136.920918,40.5192572 137.598271,40.3975389 138.443652,40.3975389 L138.450639,40.3975389 C138.879617,40.3978752 139.371475,40.4237655 139.912589,40.4745375 C140.347506,40.5236283 140.734565,40.5750727 141.068525,40.6271896 L142.266381,40.8850844 L141.496106,41.7179465 L141.241095,42.0498136 L140.479204,45.1761567 C140.012497,47.0345455 139.77635,48.2766095 139.777048,48.8690613 C139.766219,49.0570184 139.794864,49.1430954 139.820715,49.1740293 L139.851107,49.1804179 C139.882546,49.1757105 139.941234,49.1592349 140.035204,49.1054367 L140.97211,48.5247533 C141.319345,48.3048535 141.640729,48.0862987 141.925783,47.8768222 L142.762431,47.2726021 L142.740074,48.6115028 L141.926831,49.1945399 L140.289517,50.2947114 L138.708096,51.3293164 C138.364703,51.5589671 138.070567,51.6712707 137.811014,51.6712707 C137.790054,51.6712707 137.768745,51.6709345 137.748483,51.6709345 C137.35339,51.6709345 137.101173,51.433214 137.088597,51.0310731 L137.088597,50.9362539 C137.088248,50.7408995 137.114098,50.449381 137.167895,50.0452226 C137.19165,49.7789219 137.231473,49.4984992 137.28527,49.2211027 L137.297148,49.1451129 L136.681277,49.5788602 L134.696029,50.9016214 C134.27264,51.1736381 133.891171,51.385132 133.55756,51.5327406 C133.352153,51.6312584 133.131376,51.6779955 132.918982,51.6672359 C132.794621,51.6672359 132.680739,51.6494152 132.582227,51.6141102 L132.342586,51.5061777 C131.954829,51.3350325 131.69842,50.8458059 131.56253,50.0112626 C131.508384,49.7816118 131.48428,49.5341405 131.493712,49.290704 C131.483931,48.8946154 131.528296,48.4208557 131.625759,47.8983415 C131.790294,46.8684438 132.059628,45.846952 132.42398,44.8684987 C132.678293,44.1412154 132.962998,43.554816 133.268663,43.1294746 L133.268663,43.1294746 Z M126.029007,59.9991401 C126.023141,59.9764964 126.011409,59.9606818 126.011409,59.9603224 C125.964139,59.9721834 125.890645,59.9941082 125.807836,60.037239 C125.351347,60.2661918 124.911076,60.5127563 124.495992,60.7719006 C124.383164,60.8376751 124.073663,61.0339203 123.198985,61.6190617 L122.632774,61.9892679 L121.121842,68.5178357 L118.608223,69.5213461 L119.633338,65.3229205 C119.854854,64.4405359 120.025649,63.7306746 120.141582,63.2116671 C120.284774,62.5499685 120.407953,61.9529661 120.509395,61.4220976 L120.660523,60.497301 L120.693992,60.1231412 L120.67743,60.0052503 C120.667079,59.9862009 120.654312,59.9764964 120.633955,59.9703862 C120.505945,59.9890763 120.201964,60.0832452 119.509813,60.4685472 L118.342541,61.1076021 L118.513336,59.7831266 L119.278636,59.2774178 C119.619881,59.0556535 120.12571,58.7454711 120.783702,58.3536995 L122.230802,57.5144457 C122.477161,57.3753488 122.679699,57.308496 122.852565,57.3081366 L123.011283,57.317841 C123.260057,57.3904446 123.420501,57.5744694 123.462941,57.8361297 L123.466391,57.9863687 C123.466736,58.2088518 123.395313,58.5941538 123.241425,59.1994229 L123.022669,60.1723822 L124.549473,59.1868431 L126.098705,58.2142432 C126.661121,57.8458341 127.16557,57.5694375 127.59549,57.3961954 C127.736956,57.3404847 127.900161,57.3120903 128.083377,57.3120903 C128.353544,57.3189193 128.553322,57.3961954 128.685128,57.541043 C128.764142,57.6283829 128.857303,57.7858104 128.850057,58.0388445 C128.850402,58.1240279 128.840741,58.2239476 128.820038,58.3342906 L128.730328,58.778538 L128.256587,60.7068449 L127.734196,62.9144239 C127.515786,63.8183739 127.349476,64.5541137 127.239063,65.1025939 C127.150043,65.5011946 127.109328,65.8545078 127.117609,66.1596584 C127.100702,66.5338182 127.173851,66.6420047 127.196278,66.6671643 C127.205594,66.6772282 127.227332,66.7013095 127.29841,66.7013095 C127.354997,66.7077791 127.592385,66.6801035 128.44981,66.0928056 L130.552486,64.6173723 L130.278524,66.1222783 L129.39246,66.7958379 C128.209317,67.6706746 127.167985,68.3611271 126.295033,68.8503024 L125.146048,69.4480237 L124.837237,68.8477865 C124.73131,68.6486659 124.660921,68.4344495 124.630213,68.2148418 L124.602609,67.8367283 C124.601574,67.5265458 124.641254,67.1559802 124.720613,66.7164053 L125.192974,64.4577882 C125.413454,63.4636229 125.58908,62.641262 125.71502,62.0101144 L125.994157,60.5088026 L126.039013,60.1040918 L126.029007,59.9991401 Z M138.066298,73.5410969 L137.524196,73.8785366 C137.144531,74.1105265 137.006401,74.2088382 136.956628,74.2510182 L135.765545,75.158212 L135.284019,74.5985162 C135.133543,74.4379079 134.994641,74.2568585 134.871944,74.059586 C134.722239,73.8821057 134.603401,73.690998 134.537808,73.5161134 L134.309392,73.0109272 L135.412504,72.325016 L136.006308,71.8818019 L136.703904,71.4003014 L137.310827,72.5122302 L138.066298,73.5410969 Z M134.890677,66.0145417 C134.875683,66.2623663 134.921014,66.4715645 135.028763,66.6684569 C135.194047,66.9914836 135.350614,66.9914836 135.409544,66.9914836 C135.531938,66.9952437 135.655379,66.9651629 135.793813,66.8940628 C136.386954,66.6076117 137.055414,66.2257908 137.786989,65.7554367 L138.824723,65.0782772 L138.776603,66.344063 L138.68594,66.4161885 C138.122091,66.8650075 137.784548,67.123087 137.654831,67.2044419 L135.856579,68.4510854 C134.506757,69.371284 134.008114,69.5025456 133.750424,69.5210042 C133.742056,69.5213461 133.734035,69.5213461 133.725667,69.5213461 C133.312804,69.5213461 132.947366,69.2441243 132.628304,68.6975427 C132.441749,68.360843 132.348297,67.9410793 132.347948,67.4447463 C132.338185,67.0287427 132.383167,66.5830002 132.481501,66.1259773 L133.570495,61.238875 C133.275493,61.2405841 133.135316,61.2457115 133.068714,61.2498135 L132.201843,61.3000621 C132.073521,61.3174952 131.798047,61.321939 131.379605,61.3123678 L130.552486,61.2939092 L131.657171,60.5832506 L132.053296,60.2786826 L132.459184,59.939932 L133.878746,59.86473 L134.053097,59.1181796 L134.568826,56.6624936 L135.094319,56.4471425 L137.264983,55.4291813 L136.671494,57.6681489 L136.141817,59.8411439 L139.944751,59.7594472 L138.314574,61.1575201 L138.230188,61.1643567 C137.654831,61.211187 137.48048,61.2084524 137.39993,61.2022995 L136.389395,61.2146053 C136.264908,61.2074269 136.090209,61.2200745 135.830775,61.2306712 L135.707684,61.7533248 L135.065028,64.7497813 C134.972273,65.1298931 134.91404,65.4747966 134.889631,65.7810737 L134.890677,66.0145417 Z M146.519072,58.2476143 C147.353607,58.2482869 148.038134,58.5002045 148.556541,58.9959675 C149.072801,59.4910579 149.335943,60.1368279 149.337017,60.9154516 C149.328782,62.0472308 149.042369,63.3091731 148.486728,64.6683171 C147.931803,66.0382241 147.137008,67.0697744 146.125254,67.7347157 C145.649093,68.0555827 145.134623,68.3545876 144.599031,68.6219768 C143.438701,69.218305 142.504637,69.5129376 141.745643,69.5213461 C140.855257,69.5078925 140.173952,69.2714465 139.713544,68.8187348 C139.216259,68.3307076 138.978894,67.5917718 139.007894,66.6224441 C139.015054,65.0490524 139.408156,63.5557092 140.175384,62.1891657 C140.860269,60.9699385 142.066783,59.9336794 143.761274,59.1089773 C144.911579,58.5388834 145.814496,58.2566954 146.519072,58.2476143 L146.519072,58.2476143 Z M53.5947665,6.45118843 C53.5166962,6.52927964 53.4856771,6.59203151 53.4699934,6.70149866 C53.5473667,6.62340745 53.6261341,6.54496761 53.5947665,6.45118843 L53.5947665,6.45118843 Z M53.7714146,8.45529884 C53.4589617,10.2903184 53.546321,11.3176675 53.5495093,13.1526871 C53.8351805,13.1376272 53.9780161,13.0940843 54.2362679,13.0354816 C54.092157,12.3895416 54.4632745,11.9930726 54.4626368,11.3327274 C54.4607239,10.202578 54.6309788,9.49738044 53.7714146,8.45529884 L53.7714146,8.45529884 Z M110.311036,78.9161226 L110.310713,78.9161226 C109.408442,78.9161226 108.592592,79.7006091 107.89251,81.248582 C107.362369,82.3861587 107.086657,83.6362117 107.071823,84.9667066 C107.109875,86.5684261 107.608414,87.3554042 108.595817,87.3714214 C109.45262,87.3639467 110.232998,86.5847992 110.91083,85.0542673 C111.456772,83.8024346 111.745383,82.5701785 111.767956,81.3930926 C111.743448,78.9634623 110.66543,78.9275126 110.311036,78.9161226 L110.311036,78.9161226 Z M101.041582,73.7821727 C100.566456,73.3165481 99.9962356,72.9867886 99.3468853,72.8029712 C98.6690761,72.6122041 97.9399019,72.4812038 97.1791452,72.4137925 L96.083128,72.339779 L94.56925,78.8487933 L93.6755691,82.3194336 C93.2729789,83.6826016 92.6368169,84.8233817 91.7827009,85.7181453 L90.1657459,87.3672902 L93.4621268,87.3697226 C94.6254738,87.3794521 95.5174194,87.3474838 96.1122811,87.2713855 C98.1762501,87.0580321 99.7900816,85.8411536 100.914211,83.6541081 C101.438619,82.6415485 101.829409,81.5181424 102.075822,80.3151631 C102.275729,79.3689723 102.376724,78.4387657 102.375691,77.5492143 C102.375691,76.8917802 102.275035,76.2200994 102.077211,75.5522409 C101.865504,74.8454646 101.517055,74.2495346 101.041582,73.7821727 L101.041582,73.7821727 Z M152.946015,87.6303727 L150.493269,89.4515031 C148.789679,90.6969793 148.41369,91.4722824 148.398171,91.903524 C148.391822,92.1334529 148.464833,92.3204573 148.621084,92.4725232 C148.97979,92.821576 149.763512,93.0015927 150.951087,93.0079149 C151.999694,93.0162337 152.795408,92.8851309 153.339287,92.6179342 C153.99039,92.2961667 154.425987,91.7138575 154.670063,90.83873 L154.967397,89.602238 L155.911602,85.4924661 L155.779336,85.5866338 L152.946015,87.6303727 Z M113.650401,59.2412478 C113.320955,59.2139881 113.036156,59.1961785 112.796344,59.1870919 L112.796005,59.1870919 C112.193599,59.1870919 111.736637,59.4349731 111.40719,59.9460009 C111.136598,60.3650727 110.873109,60.9556987 110.623826,61.7011595 C110.135407,63.1295657 109.888491,64.4165852 109.889503,65.5287793 C109.899991,66.6929485 110.264953,66.7002178 110.38469,66.7023985 C110.506456,66.7107582 110.88833,66.625708 112.048832,65.8173682 L113.367293,64.8334762 L113.557046,63.9880633 L113.968008,61.9210541 L114.585635,59.3535576 L114.331279,59.3212094 C114.073539,59.2855902 113.847933,59.258694 113.650401,59.2412478 L113.650401,59.2412478 Z M52.2835514,5.63803589 C52.0479157,5.63803589 51.9554068,6.05747959 51.7201202,6.05747959 C51.5480189,6.05689459 51.5166008,5.63745089 51.3441503,5.6368659 C51.1406309,5.6368659 51.0463766,5.84688025 50.8428572,5.84629525 C50.8274972,6.10895943 50.7807191,6.23999903 50.718232,6.4757533 C51.4384046,6.6342878 51.8611526,6.58222297 52.5966851,6.47867829 L52.596336,5.84863524 C52.4710127,5.84863524 52.4085256,5.63803589 52.2835514,5.63803589 L52.2835514,5.63803589 Z M53.5981239,0.939477649 L53.3482291,1.64277742 C53.4890345,1.73109879 53.5831372,1.81876592 53.7235941,1.8789553 C53.7235941,1.49753784 53.660859,1.29080042 53.5981239,0.939477649 L53.5981239,0.939477649 Z M53.5359116,14.8558283 C53.6541652,14.9806348 53.7012573,15.074414 53.7242802,15.230945 C54.0293326,15.1057899 54.2171779,15.0123594 54.4751381,14.8561769 C54.1229936,14.8244524 53.8880561,14.8244524 53.5359116,14.8558283 L53.5359116,14.8558283 Z M115.080857,49.7923154 C115.207029,49.7944532 115.582842,49.7170271 116.744781,48.907507 L118.063338,47.9235057 L118.254458,47.0776354 L118.664435,45.0107601 L119.281768,42.4426149 L119.027731,42.4106267 C118.769635,42.3742764 118.543336,42.3484677 118.345451,42.3295656 C118.017672,42.3033934 117.732515,42.2855818 117.493023,42.2764942 L117.492685,42.2764942 C116.890235,42.2764942 116.432901,42.5244029 116.103769,43.0354875 C115.834511,43.4524248 115.570664,44.0431164 115.319333,44.7912046 C114.831555,46.2197695 114.58496,47.5072954 114.585635,48.6192495 C114.597138,49.7831846 114.961449,49.7900911 115.080857,49.7923154 L115.080857,49.7923154 Z M55.7667586,6.57529677 C55.8256546,6.43450597 55.8256546,6.2000291 55.9431192,6.2000291 C56.3832027,6.20055249 56.64758,6.38844802 57.0582155,6.57634355 L57.2928177,5.82633158 C56.8962517,5.7551511 56.64758,5.63791267 56.2362901,5.6368659 C55.8986201,5.6368659 55.6784147,5.70647622 55.4143646,6.01213357 C55.5616045,6.15240099 55.6787419,6.34029652 55.7667586,6.57529677 L55.7667586,6.57529677 Z M134.805183,49.7923154 C134.918477,49.7814098 135.307059,49.7167028 136.469086,48.9075024 L137.78702,47.9234479 L137.977422,47.0775317 L138.387987,45.0105446 L139.005525,42.4426239 L138.751543,42.4106339 C138.492826,42.3750087 138.266576,42.3484716 138.068734,42.3295685 C137.741026,42.3037584 137.456268,42.2852188 137.217505,42.2764942 L137.215814,42.2764942 C136.613494,42.2764942 136.156597,42.5244164 135.827537,43.035165 C135.557321,43.4539426 135.29387,44.0446661 135.043608,44.7909772 C134.555597,46.2196194 134.308717,47.5068514 134.309392,48.6195928 C134.320216,49.7835909 134.685125,49.7904978 134.805183,49.7923154 L134.805183,49.7923154 Z M48.839779,6.20065728 L49.544853,6.57634355 L49.7790055,5.82444704 L48.839779,5.6368659 L48.839779,6.20065728 Z M17.9574638,120.253139 C17.6871958,120.253139 17.4316415,120.380362 17.1904138,120.634809 C16.9495732,120.88855 16.7354497,121.217709 16.5484304,121.620524 C16.3610239,122.024043 16.2173715,122.430734 16.117473,122.840949 C16.0171873,123.251165 15.9668508,123.612746 15.9668508,123.924989 C15.9668508,124.285866 16.0373219,124.547008 16.1782639,124.708416 C16.3188188,124.869824 16.5240366,124.950527 16.7943046,124.950527 C17.0641854,124.950527 17.3228373,124.822247 17.5698731,124.566391 C17.8161345,124.310183 18.028322,123.986662 18.2060484,123.59583 C18.3833876,123.204998 18.5239425,122.796192 18.6284874,122.370118 C18.7322579,121.944044 18.7845304,121.578586 18.7845304,121.273744 C18.7845304,120.912514 18.715221,120.652077 18.5762149,120.492431 C18.4375961,120.332786 18.2312166,120.253139 17.9574638,120.253139 L17.9574638,120.253139 Z M58.9356459,5.6368659 C58.6718771,5.75462772 58.4657054,5.8998673 58.2320442,6.10595049 C58.5841723,6.28128476 58.8191426,6.42914127 59.1712707,6.57634355 C59.0246597,6.25249853 58.9356459,6.01828335 58.9356459,5.6368659 L58.9356459,5.6368659 Z M29.6932265,119.313661 C29.5478374,119.313661 29.4098628,119.367618 29.2776909,119.475124 C29.145519,119.583446 29.007222,119.783332 28.8624777,120.076416 C28.5339821,120.747199 28.3054214,121.432289 28.1767956,122.132094 C28.6529368,122.074867 29.0313998,121.929756 29.3115398,121.695942 C29.5916798,121.462129 29.7857469,121.186622 29.8934186,120.869011 C30.0014127,120.552219 30.0552486,120.216623 30.0552486,119.862633 C30.0552486,119.684002 30.0204326,119.547475 29.9511229,119.453868 C29.8821356,119.360669 29.7960627,119.313661 29.6932265,119.313661 L29.6932265,119.313661 Z M98.2038071,120.253139 C97.9405829,120.253139 97.6683299,120.375224 97.3863536,120.619392 C97.1043773,120.862925 96.8432366,121.171951 96.6025844,121.545517 C96.3622795,121.919401 96.1685076,122.300278 96.0219633,122.688151 C95.8747244,123.076023 95.801105,123.393315 95.801105,123.640663 C95.801105,123.748441 95.8295804,123.837143 95.8868786,123.906769 C95.9438294,123.976078 96.0191852,124.01105 96.1122512,124.01105 C96.3025505,124.01105 96.5307013,123.874023 96.7973981,123.600287 C97.0637477,123.326233 97.3412096,122.976512 97.6301311,122.55017 C97.9187054,122.124464 98.155885,121.729279 98.3409754,121.364934 C98.5260657,121.000906 98.6187845,120.750697 98.6187845,120.614305 C98.6187845,120.494129 98.5826693,120.403837 98.5097444,120.343749 C98.4371668,120.283342 98.3350719,120.253139 98.2038071,120.253139 L98.2038071,120.253139 Z M73.3715549,120.253139 C73.1017112,120.253139 72.846192,120.380362 72.6049974,120.634809 C72.36419,120.88855 72.1500959,121.217709 71.9627152,121.620524 C71.7757216,122.024043 71.6320888,122.430734 71.5318169,122.840949 C71.431545,123.251165 71.3812155,123.612746 71.3812155,123.924989 C71.3812155,124.285866 71.4516768,124.547008 71.5925995,124.708416 C71.7335222,124.869824 71.9387118,124.950527 72.2085556,124.950527 C72.4783993,124.950527 72.7370157,124.822247 72.9840175,124.566391 C73.2306322,124.310183 73.4427906,123.986662 73.6204925,123.59583 C73.7978074,123.204998 73.9383429,122.796192 74.0424863,122.370118 C74.1466297,121.944044 74.198895,121.578586 74.198895,121.273744 C74.198895,120.912514 74.129208,120.652077 73.9906082,120.492431 C73.8516212,120.332786 73.6452702,120.253139 73.3715549,120.253139 L73.3715549,120.253139 Z M143.348061,67.6423908 C144.20416,67.6356277 144.984485,66.8557354 145.66227,65.3254951 C146.208175,64.0757454 146.497088,62.8434374 146.519337,61.6638103 C146.495798,59.2347896 145.417532,59.1991943 145.063162,59.1870919 L145.062195,59.1870919 C144.16063,59.1870919 143.344514,59.9719675 142.644479,61.5196495 C142.114053,62.6572741 141.838359,63.9073798 141.823204,65.2379307 C141.861898,66.8400735 142.360403,67.6263729 143.348061,67.6423908 L143.348061,67.6423908 Z M66.3230608,119.313661 C66.177994,119.313661 66.0396971,119.367618 65.9075252,119.475124 C65.7756756,119.583446 65.6370563,119.783332 65.4923119,120.076416 C65.1638164,120.747199 64.9352557,121.432289 64.8066298,122.132094 C65.2827711,122.074867 65.6612341,121.929756 65.9413741,121.695942 C66.2215141,121.462129 66.4155811,121.186622 66.5232529,120.869011 C66.631247,120.552219 66.6850829,120.216623 66.6850829,119.862633 C66.6850829,119.684002 66.6502669,119.547475 66.5812796,119.453868 C66.5119699,119.360669 66.425897,119.313661 66.3230608,119.313661 L66.3230608,119.313661 Z M54.2963614,4.69738825 C54.6993575,4.00569292 54.2953023,3.54912162 54.2937136,2.81843295 C54.0559407,2.92290019 53.7233763,3.00088687 53.7233763,3.18334079 C53.7239058,3.6922912 53.7493247,4.00540192 53.5359116,4.48816278 C53.8457049,4.55363667 54.0114575,4.60572479 54.2963614,4.69738825 L54.2963614,4.69738825 Z M90.1560671,120.253139 C89.9667506,120.253139 89.7704654,120.281333 89.565663,120.337367 L88.5246159,123.566932 C88.4704149,123.728339 88.4282155,123.85803 88.3976306,123.956002 C88.3666586,124.054679 88.3403324,124.147365 88.3190391,124.234765 C88.298133,124.322517 88.2872928,124.394763 88.2872928,124.450798 C88.2872928,124.783833 88.4766093,124.950527 88.8540808,124.950527 C89.2865276,124.950527 89.674065,124.737314 90.0170802,124.31124 C90.3604824,123.885166 90.627229,123.373101 90.8184812,122.775399 C91.0093463,122.177697 91.1049724,121.645545 91.1049724,121.178943 C91.1049724,120.561858 90.7882835,120.253139 90.1560671,120.253139 L90.1560671,120.253139 Z" id="Fill-1"></path>
                    </g>
                </g>
            </g>
        </g>
    </g>
</svg>